<?xml version="1.0" encoding="UTF-8" standalone="no"?>
<svg
   xmlns:dc="http://purl.org/dc/elements/1.1/"
   xmlns:cc="http://creativecommons.org/ns#"
   xmlns:rdf="http://www.w3.org/1999/02/22-rdf-syntax-ns#"
   xmlns:svg="http://www.w3.org/2000/svg"
   xmlns="http://www.w3.org/2000/svg"
   xmlns:sodipodi="http://sodipodi.sourceforge.net/DTD/sodipodi-0.dtd"
   xmlns:inkscape="http://www.inkscape.org/namespaces/inkscape"
   sodipodi:docname="logo42.svg"
   inkscape:version="1.0beta1 (32d4812, 2019-09-19)"
   width="633mm"
   height="366mm"
   viewBox="0 0 2392.4398 1383.307"
   version="1.1"
   id="SVGRoot">
  <defs
     id="defs1052" />
  <sodipodi:namedview
     height="419mm"
     units="mm"
     inkscape:window-maximized="0"
     inkscape:window-y="24"
     inkscape:window-x="16"
     inkscape:window-height="755"
     inkscape:window-width="1280"
     showgrid="false"
     inkscape:document-rotation="0"
     inkscape:current-layer="layer1"
     inkscape:document-units="px"
     inkscape:cy="1523.5827"
     inkscape:cx="2563.2825"
     inkscape:zoom="0.14510717"
     inkscape:pageshadow="2"
     inkscape:pageopacity="0.0"
     borderopacity="1.0"
     bordercolor="#666666"
     pagecolor="#ffffff"
     id="base" />
  <metadata
     id="metadata1055">
    <rdf:RDF>
      <cc:Work
         rdf:about="">
        <dc:format>image/svg+xml</dc:format>
        <dc:type
           rdf:resource="http://purl.org/dc/dcmitype/StillImage" />
        <dc:title></dc:title>
      </cc:Work>
    </rdf:RDF>
  </metadata>
  <g
     id="layer1"
     inkscape:groupmode="layer"
     inkscape:label="레이어 1">
    <g
       transform="matrix(7.7950763,0,0,-7.7950763,663.35946,107.20832)"
       id="g367">
      <path
         inkscape:connector-curvature="0"
         id="path369"
         style="fill:#ffffff;fill-opacity:1;fill-rule:nonzero;stroke:none"
         d="m 0,0 h -26.068 l -52.13,-52.133 v -21.103 h 52.13 V -99.303 H 0 v 47.17 h -52.134 z" />
    </g>
    <g
       transform="matrix(7.7950763,0,0,-7.7950763,750.43729,310.39783)"
       id="g371">
      <path
         inkscape:connector-curvature="0"
         id="path373"
         style="fill:#ffffff;fill-opacity:1;fill-rule:nonzero;stroke:none"
         d="M 0,0 26.066,26.066 H 0 Z" />
    </g>
    <g
       transform="matrix(7.7950763,0,0,-7.7950763,1156.8125,310.39783)"
       id="g375">
      <path
         inkscape:connector-curvature="0"
         id="path377"
         style="fill:#ffffff;fill-opacity:1;fill-rule:nonzero;stroke:none"
         d="M 0,0 V 26.066 H -26.066 V 0 l -26.066,-26.066 v -26.069 h 26.066 v 26.069 z" />
    </g>
    <g
       transform="matrix(7.7950763,0,0,-7.7950763,1156.8125,513.58741)"
       id="g379">
      <path
         inkscape:connector-curvature="0"
         id="path381"
         style="fill:#ffffff;fill-opacity:1;fill-rule:nonzero;stroke:none"
         d="M 0,0 -26.066,-26.068 H 0 Z" />
    </g>
    <path
       inkscape:connector-curvature="0"
       id="path383"
       style="fill:#1b1c1c;fill-opacity:1;fill-rule:nonzero;stroke:none;stroke-width:7.79509"
       d="M 767.60995,1085.178 H 751.56768 V 883.15281 h 16.04227 z" />
    <path
       inkscape:connector-curvature="0"
       id="path385"
       style="fill:#ffffff;fill-opacity:1;fill-rule:nonzero;stroke:none;stroke-width:7.79509"
       d="m 882.40017,1204.9102 h -24.71033 v -107.0186 h 24.71033 z" />
    <g
       transform="matrix(7.7950763,0,0,-7.7950763,903.57156,1133.3498)"
       id="g387">
      <path
         inkscape:connector-curvature="0"
         id="path389"
         style="fill:#ffffff;fill-opacity:1;fill-rule:nonzero;stroke:none"
         d="M 0,0 H 2.964 V -1.091 C 3.87,0.062 4.94,0.247 5.805,0.247 6.607,0.247 7.657,0.103 8.439,-0.68 9.304,-1.544 9.366,-2.635 9.366,-3.376 V -9.181 H 6.401 v 4.714 c 0,0.597 -0.02,1.359 -0.493,1.832 -0.227,0.227 -0.597,0.411 -1.133,0.411 -0.617,0 -1.008,-0.247 -1.234,-0.493 C 3.046,-3.211 2.964,-3.87 2.964,-4.467 V -9.181 H 0 Z" />
    </g>
    <g
       transform="matrix(7.7950763,0,0,-7.7950763,994.52843,1133.3498)"
       id="g391">
      <path
         inkscape:connector-curvature="0"
         id="path393"
         style="fill:#ffffff;fill-opacity:1;fill-rule:nonzero;stroke:none"
         d="M 0,0 H 2.964 V -1.091 C 3.87,0.062 4.94,0.247 5.805,0.247 6.607,0.247 7.657,0.103 8.439,-0.68 9.304,-1.544 9.366,-2.635 9.366,-3.376 V -9.181 H 6.401 v 4.714 c 0,0.597 -0.02,1.359 -0.493,1.832 -0.227,0.227 -0.597,0.411 -1.133,0.411 -0.617,0 -1.008,-0.247 -1.234,-0.493 C 3.046,-3.211 2.964,-3.87 2.964,-4.467 V -9.181 H 0 Z" />
    </g>
    <g
       transform="matrix(7.7950763,0,0,-7.7950763,1110.9939,1155.654)"
       id="g395">
      <path
         inkscape:connector-curvature="0"
         id="path397"
         style="fill:#ffffff;fill-opacity:1;fill-rule:nonzero;stroke:none"
         d="m 0,0 c -0.433,-0.433 -0.68,-0.988 -0.68,-1.729 0,-0.844 0.33,-1.379 0.68,-1.729 0.37,-0.371 0.905,-0.659 1.687,-0.659 0.659,0 1.215,0.226 1.647,0.659 0.433,0.432 0.68,0.988 0.68,1.729 0,0.741 -0.247,1.296 -0.68,1.729 C 2.902,0.433 2.346,0.658 1.667,0.658 0.988,0.658 0.432,0.433 0,0 M 5.681,-5.146 C 4.857,-5.97 3.458,-6.628 1.667,-6.628 c -1.791,0 -3.19,0.658 -4.014,1.482 -0.926,0.926 -1.379,2.244 -1.379,3.417 0,1.173 0.453,2.491 1.379,3.416 0.824,0.825 2.223,1.483 4.014,1.483 1.791,0 3.19,-0.658 4.014,-1.483 C 6.607,0.762 7.06,-0.556 7.06,-1.729 7.06,-2.902 6.607,-4.22 5.681,-5.146" />
    </g>
    <g
       transform="matrix(7.7950763,0,0,-7.7950763,1197.1357,1133.3498)"
       id="g399">
      <path
         inkscape:connector-curvature="0"
         id="path401"
         style="fill:#ffffff;fill-opacity:1;fill-rule:nonzero;stroke:none"
         d="M 0,0 2.326,-4.92 4.652,0 H 7.904 L 3.252,-9.181 H 1.4 L -3.252,0 Z" />
    </g>
    <g
       transform="matrix(7.7950763,0,0,-7.7950763,1293.5501,1155.9736)"
       id="g403">
      <path
         inkscape:connector-curvature="0"
         id="path405"
         style="fill:#ffffff;fill-opacity:1;fill-rule:nonzero;stroke:none"
         d="m 0,0 c -0.309,-0.309 -0.68,-0.844 -0.68,-1.667 0,-0.824 0.35,-1.359 0.618,-1.647 0.412,-0.432 1.05,-0.72 1.749,-0.72 0.598,0 1.153,0.246 1.544,0.638 0.392,0.37 0.721,0.947 0.721,1.729 0,0.658 -0.247,1.275 -0.68,1.688 C 2.82,0.453 2.161,0.658 1.626,0.658 0.988,0.658 0.391,0.391 0,0 m 3.767,2.902 h 2.964 v -9.18 H 3.767 v 1.111 c -0.803,-1.234 -1.956,-1.42 -2.717,-1.42 -1.318,0 -2.429,0.329 -3.438,1.4 -0.967,1.029 -1.338,2.223 -1.338,3.437 0,1.544 0.577,2.861 1.42,3.705 0.803,0.803 1.915,1.256 3.191,1.256 0.782,0 2.038,-0.186 2.882,-1.338 z" />
    </g>
    <g
       transform="matrix(7.7950763,0,0,-7.7950763,1387.7114,1151.9623)"
       id="g407">
      <path
         inkscape:connector-curvature="0"
         id="path409"
         style="fill:#ffffff;fill-opacity:1;fill-rule:nonzero;stroke:none"
         d="M 0,0 V -6.793 H -2.964 V 0 h -1.029 v 2.388 h 1.029 V 5.352 H 0 V 2.388 H 1.832 V 0 Z" />
    </g>
    <path
       inkscape:connector-curvature="0"
       id="path411"
       style="fill:#ffffff;fill-opacity:1;fill-rule:nonzero;stroke:none;stroke-width:7.79509"
       d="m 1436.6382,1204.9102 h -23.1048 v -71.5666 h 23.1048 z m -11.5524,-115.523 c 7.5456,0 13.4776,5.9398 13.4776,13.4778 0,7.5376 -5.932,13.4775 -13.4776,13.4775 -7.5378,0 -13.4776,-5.9399 -13.4776,-13.4775 0,-7.538 5.9398,-13.4778 13.4776,-13.4778" />
    <g
       transform="matrix(7.7950763,0,0,-7.7950763,1481.7169,1155.654)"
       id="g413">
      <path
         inkscape:connector-curvature="0"
         id="path415"
         style="fill:#ffffff;fill-opacity:1;fill-rule:nonzero;stroke:none"
         d="m 0,0 c -0.433,-0.433 -0.68,-0.988 -0.68,-1.729 0,-0.844 0.33,-1.379 0.68,-1.729 0.37,-0.371 0.905,-0.659 1.687,-0.659 0.659,0 1.215,0.226 1.647,0.659 0.433,0.432 0.68,0.988 0.68,1.729 0,0.741 -0.247,1.296 -0.68,1.729 C 2.902,0.433 2.346,0.658 1.667,0.658 0.988,0.658 0.432,0.433 0,0 M 5.681,-5.146 C 4.857,-5.97 3.458,-6.628 1.667,-6.628 c -1.791,0 -3.19,0.658 -4.014,1.482 -0.926,0.926 -1.379,2.244 -1.379,3.417 0,1.173 0.453,2.491 1.379,3.416 0.824,0.825 2.223,1.483 4.014,1.483 1.791,0 3.19,-0.658 4.014,-1.483 C 6.607,0.762 7.06,-0.556 7.06,-1.729 7.06,-2.902 6.607,-4.22 5.681,-5.146" />
    </g>
    <g
       transform="matrix(7.7950763,0,0,-7.7950763,1551.172,1133.3498)"
       id="g417">
      <path
         inkscape:connector-curvature="0"
         id="path419"
         style="fill:#ffffff;fill-opacity:1;fill-rule:nonzero;stroke:none"
         d="M 0,0 H 2.964 V -1.091 C 3.87,0.062 4.94,0.247 5.805,0.247 6.607,0.247 7.657,0.103 8.439,-0.68 9.304,-1.544 9.366,-2.635 9.366,-3.376 V -9.181 H 6.401 v 4.714 c 0,0.597 -0.02,1.359 -0.493,1.832 -0.227,0.227 -0.597,0.411 -1.133,0.411 -0.617,0 -1.008,-0.247 -1.234,-0.493 C 3.046,-3.211 2.964,-3.87 2.964,-4.467 V -9.181 H 0 Z" />
    </g>
    <g
       transform="matrix(7.7950763,0,0,-7.7950763,1738.3871,1165.7634)"
       id="g421">
      <path
         inkscape:connector-curvature="0"
         id="path423"
         style="fill:#ffffff;fill-opacity:1;fill-rule:nonzero;stroke:none"
         d="M 0,0 -1.688,4.611 -3.396,0 Z m 0.865,-2.429 h -5.188 l -1.05,-2.593 h -3.293 l 5.537,13.729 h 2.902 L 5.187,-5.022 H 1.894 Z" />
    </g>
    <g
       transform="matrix(7.7950763,0,0,-7.7950763,1841.8549,1155.9736)"
       id="g425">
      <path
         inkscape:connector-curvature="0"
         id="path427"
         style="fill:#ffffff;fill-opacity:1;fill-rule:nonzero;stroke:none"
         d="m 0,0 c -0.72,0.597 -1.461,0.699 -1.935,0.699 -0.926,0 -1.482,-0.452 -1.688,-0.658 -0.391,-0.392 -0.679,-0.988 -0.679,-1.729 0,-0.679 0.247,-1.255 0.617,-1.647 0.454,-0.494 1.133,-0.741 1.791,-0.741 0.515,0 1.215,0.144 1.894,0.721 v -2.676 c -0.782,-0.433 -1.523,-0.556 -2.347,-0.556 -1.543,0 -2.716,0.556 -3.561,1.379 -0.699,0.68 -1.441,1.832 -1.441,3.499 0,1.564 0.659,2.8 1.524,3.623 1.029,0.968 2.243,1.297 3.499,1.297 0.803,0 1.544,-0.145 2.326,-0.515 z" />
    </g>
    <g
       transform="matrix(7.7950763,0,0,-7.7950763,1882.7557,1155.9736)"
       id="g429">
      <path
         inkscape:connector-curvature="0"
         id="path431"
         style="fill:#ffffff;fill-opacity:1;fill-rule:nonzero;stroke:none"
         d="m 0,0 c -0.309,-0.309 -0.68,-0.844 -0.68,-1.667 0,-0.824 0.35,-1.359 0.618,-1.647 0.412,-0.432 1.05,-0.72 1.749,-0.72 0.598,0 1.153,0.246 1.544,0.638 0.392,0.37 0.721,0.947 0.721,1.729 0,0.658 -0.247,1.275 -0.68,1.688 C 2.82,0.453 2.161,0.658 1.626,0.658 0.988,0.658 0.391,0.391 0,0 m 3.767,2.902 h 2.964 v -9.18 H 3.767 v 1.111 c -0.803,-1.234 -1.956,-1.42 -2.717,-1.42 -1.318,0 -2.429,0.329 -3.438,1.4 -0.967,1.029 -1.338,2.223 -1.338,3.437 0,1.544 0.577,2.861 1.42,3.705 0.803,0.803 1.915,1.256 3.191,1.256 0.782,0 2.038,-0.186 2.882,-1.338 z" />
    </g>
    <g
       transform="matrix(7.7950763,0,0,-7.7950763,1979.0031,1155.654)"
       id="g433">
      <path
         inkscape:connector-curvature="0"
         id="path435"
         style="fill:#ffffff;fill-opacity:1;fill-rule:nonzero;stroke:none"
         d="m 0,0 c -0.432,-0.412 -0.721,-1.009 -0.721,-1.75 0,-0.679 0.289,-1.276 0.721,-1.688 0.453,-0.432 1.029,-0.637 1.544,-0.637 0.556,0 1.214,0.225 1.687,0.679 0.351,0.329 0.68,0.884 0.68,1.646 0,0.782 -0.309,1.317 -0.659,1.688 C 2.779,0.433 2.223,0.617 1.585,0.617 0.988,0.617 0.473,0.453 0,0 M 6.69,-6.319 H 3.726 v 1.111 c -0.453,-0.658 -1.276,-1.42 -2.903,-1.42 -1.358,0 -2.346,0.432 -3.149,1.256 -0.947,0.946 -1.441,2.264 -1.441,3.685 0,1.522 0.556,2.778 1.441,3.622 0.803,0.761 1.935,1.235 3.19,1.235 1.009,0 2.121,-0.329 2.862,-1.338 V 8.687 H 6.69 Z" />
    </g>
    <g
       transform="matrix(7.7950763,0,0,-7.7950763,2101.7259,1159.3457)"
       id="g437">
      <path
         inkscape:connector-curvature="0"
         id="path439"
         style="fill:#ffffff;fill-opacity:1;fill-rule:nonzero;stroke:none"
         d="m 0,0 c -0.021,0.082 -0.165,0.659 -0.597,1.07 -0.329,0.309 -0.802,0.515 -1.4,0.515 -0.761,0 -1.214,-0.309 -1.502,-0.597 C -3.726,0.741 -3.931,0.412 -4.014,0 Z m 2.738,-1.771 h -6.855 c 0,-0.493 0.186,-1.152 0.556,-1.563 0.453,-0.494 1.07,-0.577 1.523,-0.577 0.433,0 0.886,0.083 1.194,0.267 0.041,0.021 0.391,0.248 0.638,0.762 l 2.8,-0.288 C 2.182,-4.467 1.359,-5.146 0.824,-5.476 -0.062,-6.011 -1.05,-6.154 -2.079,-6.154 c -1.379,0 -2.593,0.247 -3.664,1.317 -0.802,0.803 -1.379,2.017 -1.379,3.54 0,1.318 0.474,2.676 1.4,3.623 1.111,1.112 2.491,1.318 3.52,1.318 1.029,0 2.511,-0.186 3.643,-1.379 1.091,-1.154 1.297,-2.594 1.297,-3.726 z" />
    </g>
    <g
       transform="matrix(7.7950763,0,0,-7.7950763,2137.4888,1133.3498)"
       id="g441">
      <path
         inkscape:connector-curvature="0"
         id="path443"
         style="fill:#ffffff;fill-opacity:1;fill-rule:nonzero;stroke:none"
         d="m 0,0 h 2.964 v -1.07 c 0.762,1.152 1.873,1.297 2.573,1.297 0.391,0 1.111,-0.041 1.729,-0.413 0.473,-0.267 0.864,-0.72 1.111,-1.276 0.227,0.371 0.577,0.803 1.174,1.174 0.638,0.391 1.235,0.515 1.955,0.515 1.112,0 2.017,-0.331 2.574,-0.866 0.884,-0.843 0.946,-2.078 0.946,-2.737 v -5.805 h -2.964 v 4.653 c 0,0.472 0,1.297 -0.391,1.79 -0.247,0.309 -0.638,0.494 -1.07,0.494 -0.495,0 -0.906,-0.227 -1.153,-0.556 C 9.057,-3.294 8.995,-4.014 8.995,-4.611 v -4.57 H 6.031 v 4.776 c 0,0.617 -0.021,1.338 -0.473,1.791 -0.309,0.308 -0.68,0.37 -0.989,0.37 -0.391,0 -0.74,-0.103 -1.028,-0.37 C 2.984,-3.149 2.964,-4.179 2.964,-4.487 V -9.181 H 0 Z" />
    </g>
    <g
       transform="matrix(7.7950763,0,0,-7.7950763,2298.2356,1195.7713)"
       id="g445">
      <path
         inkscape:connector-curvature="0"
         id="path447"
         style="fill:#ffffff;fill-opacity:1;fill-rule:nonzero;stroke:none"
         d="m 0,0 -4.385,8.008 h 3.417 L 1.626,3.026 4.158,8.008 H 7.492 L 0.103,-5.887 h -3.335 z" />
    </g>
    <g
       transform="matrix(7.7950763,0,0,-7.7950763,912.40575,951.59657)"
       id="g449">
      <path
         inkscape:connector-curvature="0"
         id="path451"
         style="fill:#ffffff;fill-opacity:1;fill-rule:nonzero;stroke:none"
         d="m 0,0 c -0.865,0.782 -1.688,0.988 -2.306,0.988 -0.391,0 -0.946,-0.061 -1.297,-0.349 -0.288,-0.227 -0.473,-0.618 -0.473,-0.989 0,-0.412 0.185,-0.7 0.473,-0.925 0.289,-0.247 0.659,-0.412 1.338,-0.721 l 0.803,-0.371 c 0.659,-0.309 1.276,-0.658 1.812,-1.318 0.494,-0.617 0.7,-1.254 0.7,-2.14 0,-1.441 -0.577,-2.717 -1.38,-3.52 -1.111,-1.091 -2.531,-1.338 -3.931,-1.338 -1.009,0 -1.812,0.123 -2.738,0.618 -0.679,0.371 -1.338,0.926 -1.832,1.461 l 1.77,2.264 c 0.289,-0.39 0.742,-0.823 1.153,-1.091 0.432,-0.267 1.009,-0.453 1.606,-0.453 0.473,0 1.132,0.145 1.523,0.433 0.37,0.288 0.576,0.762 0.576,1.276 0,0.494 -0.226,0.782 -0.391,0.947 -0.103,0.103 -0.37,0.33 -1.091,0.618 l -0.803,0.329 c -0.226,0.082 -1.276,0.535 -1.934,1.215 -0.659,0.678 -0.906,1.461 -0.906,2.326 0,1.42 0.576,2.449 1.235,3.107 1.112,1.091 2.531,1.297 3.705,1.297 1.173,0 2.532,-0.226 3.973,-1.358 z" />
    </g>
    <g
       transform="matrix(7.7950763,0,0,-7.7950763,1004.9645,946.29824)"
       id="g453">
      <path
         inkscape:connector-curvature="0"
         id="path455"
         style="fill:#ffffff;fill-opacity:1;fill-rule:nonzero;stroke:none"
         d="m 0,0 h -4.487 l -0.33,-2.655 h 4.323 l -0.329,-2.676 h -4.323 l -0.371,-3.047 h 4.57 l -0.329,-2.676 h -7.658 l 1.688,13.73 h 7.575 z" />
    </g>
    <g
       transform="matrix(7.7950763,0,0,-7.7950763,1052.6033,956.08754)"
       id="g457">
      <path
         inkscape:connector-curvature="0"
         id="path459"
         style="fill:#ffffff;fill-opacity:1;fill-rule:nonzero;stroke:none"
         d="m 0,0 c -0.803,-0.844 -1.256,-1.996 -1.256,-3.149 0,-1.256 0.474,-2.244 1.112,-2.882 0.926,-0.947 2.038,-1.153 3.005,-1.153 0.926,0 2.058,0.144 3.067,1.173 0.741,0.762 1.276,1.956 1.276,3.376 0,0.886 -0.185,1.997 -1.091,2.882 C 5.208,1.132 4.117,1.317 3.273,1.317 1.914,1.317 0.823,0.864 0,0 m 8.521,2.449 c 1.174,-1.132 1.936,-2.86 1.936,-4.878 0,-1.955 -0.68,-4.076 -2.121,-5.557 -1.729,-1.771 -3.89,-2.12 -5.681,-2.12 -1.708,0 -3.602,0.308 -5.228,1.955 -0.947,0.967 -1.935,2.552 -1.935,4.796 0,2.409 0.967,4.282 2.264,5.516 1.75,1.668 3.87,2.079 5.64,2.079 2.635,0 4.22,-0.926 5.125,-1.791" />
    </g>
    <g
       transform="matrix(7.7950763,0,0,-7.7950763,1183.5053,925.44032)"
       id="g461">
      <path
         inkscape:connector-curvature="0"
         id="path463"
         style="fill:#ffffff;fill-opacity:1;fill-rule:nonzero;stroke:none"
         d="m 0,0 -0.906,-7.492 c -0.062,-0.433 -0.103,-0.618 -0.103,-1.195 0,-0.555 0.083,-1.255 0.597,-1.77 0.37,-0.35 0.968,-0.617 1.811,-0.617 1.03,0 1.668,0.329 2.018,0.679 0.679,0.679 0.823,1.832 0.926,2.615 L 5.29,0 H 8.46 L 7.472,-7.986 c -0.206,-1.647 -0.391,-3.315 -1.626,-4.571 -1.379,-1.42 -3.376,-1.481 -4.508,-1.481 -1.359,0 -3.088,0.164 -4.343,1.42 -0.865,0.844 -1.215,1.893 -1.215,3.17 0,0.618 0.103,1.605 0.165,2.161 L -3.17,0 Z" />
    </g>
    <g
       transform="matrix(7.7950763,0,0,-7.7950763,1297.5623,925.44032)"
       id="g465">
      <path
         inkscape:connector-curvature="0"
         id="path467"
         style="fill:#ffffff;fill-opacity:1;fill-rule:nonzero;stroke:none"
         d="M 0,0 -1.358,-11.054 H 2.923 L 2.594,-13.729 H -4.858 L -3.17,0 Z" />
    </g>
  </g>
</svg>
