<svg width="166" height="23" viewBox="0 0 166 23" fill="none" xmlns="http://www.w3.org/2000/svg">
<g clip-path="url(#clip0_2_46)">
<path d="M62.76 3.22V9.47H55.68V3.22H51.78V19.61H55.68V13.02H62.76V19.61H66.66V3.22H66.46H62.76Z" fill="black"/>
<path d="M80.9601 3.22L76.8701 9.71L72.8001 3.22H68.1901L74.9301 13.93V19.61H78.8301V13.93L85.5601 3.22H85.2001H80.9601Z" fill="black"/>
<path d="M98.11 3.22V15.23C98.11 15.69 97.77 16.05 97.28 16.05H91.03V3.22H87.13V19.61H98.66C99.69 19.61 100.51 19.31 101.11 18.71C101.71 18.11 102.01 17.29 102.01 16.26V3.22H101.82H98.11Z" fill="black"/>
<path d="M117.15 3.22H105.62V19.61H109.52V6.77H115.78C116.28 6.77 116.61 7.16 116.61 7.59V19.61H120.51V6.57C120.51 5.54 120.21 4.72 119.61 4.12C118.99 3.53 118.17 3.22 117.15 3.22Z" fill="black"/>
<path d="M135.64 3.22H124.11V19.61H135.64C136.66 19.61 137.48 19.31 138.08 18.71C138.68 18.11 138.98 17.29 138.98 16.26V6.57C138.98 5.54 138.68 4.72 138.08 4.12C137.48 3.53 136.66 3.22 135.64 3.22ZM135.09 7.62V15.21C135.09 15.65 134.77 16.06 134.26 16.06H128.01V6.77H134.24C134.75 6.77 135.09 7.13 135.09 7.62Z" fill="black"/>
<path d="M145.78 3.22C144.76 3.22 143.93 3.52 143.33 4.12C142.73 4.72 142.43 5.54 142.43 6.57V19.61H146.32V14.54H153.4V19.61H157.3V3.22H145.78ZM153.41 6.77V10.99H146.33V7.6C146.33 7.2 146.64 6.77 147.16 6.77H153.41Z" fill="black"/>
<path d="M165 3.22H161.1V19.61H165V3.22Z" fill="black"/>
<path d="M21.29 22.83C33.6 22.83 43.58 17.72 43.58 11.41C43.59 5.11 33.61 0 21.29 0C8.98 0 -1 5.11 -1 11.41C-1 17.72 8.98 22.83 21.29 22.83ZM25.49 17.23C25.12 18.09 24.48 19.93 23.01 20.67C22.57 20.89 22.02 21 21.52 21.01C21.41 21.01 21.33 21.01 21.3 21.01C17.18 21.01 13.36 20.44 10.15 19.46C10.12 19.45 10.05 19.42 10.03 19.41C9.73 19.31 9.58 19.17 9.58 19.01C9.58 18.86 9.66 18.75 9.76 18.65C9.8 18.6 9.87 18.55 9.96 18.47C10.7 17.85 12.93 16.24 17.13 14.63C18.6 14.07 20.44 13.37 22.38 12.96C23.51 12.72 27.7 12.08 25.49 17.23ZM36.75 5.72C36.83 5.58 36.94 5.47 37.13 5.45C37.23 5.44 37.38 5.47 37.59 5.6C40.21 7.21 41.76 9.22 41.76 11.4C41.76 15.34 36.7 18.72 29.46 20.2C28.99 20.29 28.69 20.29 28.58 20.17C28.51 20.1 28.49 19.97 28.58 19.82C28.63 19.74 28.68 19.67 28.77 19.55C32.71 14.9 35.71 8.05 36.57 6.07C36.64 5.95 36.7 5.81 36.75 5.72ZM17.16 5.58C17.53 4.72 18.17 2.88 19.64 2.15C20.09 1.93 20.63 1.82 21.13 1.81C21.24 1.81 21.32 1.81 21.35 1.81C25.47 1.81 29.29 2.38 32.5 3.36C32.52 3.37 32.6 3.4 32.62 3.4C32.92 3.5 33.07 3.63 33.07 3.8C33.07 3.95 32.99 4.06 32.89 4.16C32.84 4.2 32.78 4.26 32.69 4.34C31.95 4.96 29.72 6.57 25.52 8.18C24.05 8.74 22.2 9.44 20.28 9.85C19.14 10.09 14.95 10.73 17.16 5.58ZM13.12 2.61C13.59 2.52 13.89 2.52 14 2.64C14.06 2.71 14.08 2.84 14 2.99C13.95 3.07 13.9 3.15 13.81 3.26C9.87 7.91 6.87 14.76 6.01 16.74C5.95 16.88 5.88 17.01 5.83 17.1C5.75 17.24 5.65 17.36 5.46 17.37C5.35 17.38 5.21 17.35 4.99 17.22C2.37 15.61 0.82 13.6 0.82 11.42C0.82 7.48 5.88 4.09 13.12 2.61Z" fill="black"/>
</g>
<defs>
<clipPath id="clip0_2_46">
<rect width="166" height="23" fill="white"/>
</clipPath>
</defs>
</svg>
